/* XPM */
static char *xpm[] = {
"68 35 2 1",
"a c #000000",
"b c #ffffff",
"bbbbbbbbbbbbbbbbaaaaabbbbbbbbbbbbbbbbbbbbbbbbbbbbbbbbbbbbbbbbbbbbbbb",
"bbbbbbbbbbbbaaaaaaaaaaaaabbbbbbbbbbbbbbbbbbbbbbbbbbbbbbbbbbbbbbbbbbb",
"bbbbbbbbbbaaaaaaaaaaaaaaaaabbbbbbbbbbbbbbbbbbbbbbbbbbbbbbbbbbbbbbbbb",
"bbbbbbbbaaaaaaaaaaaaaaaaaaaaabbbbbbbbbbbbbbbbbbbbbbbbbbbbbbbbbbbbbbb",
"bbbbbbbaaaaaaaaaaaaaaaaaaaaaaabbbbbbbbbbbbbbbbbbbbbbbbbbbbbbbbbabbbb",
"bbbbbbaaaaaaaaaaaaaaaaaaaaaaaaabbbbbbbbbbbbbbbbbbbbbbbbbbbbbbbaabbbb",
"bbbbbaaaaaaaaaaaaaaaaaaaaaaaaaaabbbbbbbbbbbbbbbbbbbbbbbbbbbbbaaabbbb",
"bbbbaaaaaaaaaaaaaaaaaaaaaaaaaaaaabbbbbbbbbbbbbbbbbbbbbbbbbbbaaaabbbb",
"aaaabbbaabbbbaaaabbbbbbaaaabbbaaaabaaaaabbbbbaaaaaabbbbbbbbaaaaaaaaa",
"aaaabbbabbbbbbbaabbbbbbaaaabbbaaaabaaaaabbbaaaaaaaaaabbbbbaaaaaaaaaa",
"aaabbbbbbbbbbbbaabbbbbbbaabbbbbaabaaaaaabbaaaaaaaaaaaabbbaaaaaaaaaaa",
"aaabbbbbbbbbbbbbaabbbbbbaabbbbbaabbaaaabbaaaaaaaaaaaaaabbaaaaaaaaaaa",
"aaabbbbbbbbbbbbbaabbbbbbaabbbbbaabbaaaabbaaaaaaaaaaaaaabbbaaaaaabbbb",
"aabbbbbaabbbbbbbaabbbbbbbbbbbbbbbbbaaaabaaaaaabbbbaaaaaabbaaaaaabbbb",
"aabbbbbaaabbbbbbaaabbbbbbbbbbbbbbbbbaabbaaaaabbbbbbaaaaabbaaaaaabbbb",
"aabbbbbaaabbbbbbaaabbbbbbbbbbbbbbbbbaabbaaaaabbbbbbaaaaabbaaaaaabbbb",
"aabbbbbaaabbbbbbaaaabbbbbbbbabbbbbbbaabbaaaaabbbbbbaaaaabbaaaaaabbbb",
"aabbbbbaaabbbbbbaaaabbbbbbbbabbbbbbbabbbaaaaaabbbbaaaaaabbaaaaaaabbb",
"aabbbbbaabbbbbbbaaaabbbbbbbbaabbbbbbabbbbaaaaaaaaaaaaaabbbaaaaaaaaaa",
"aabbbbbbbbbbbbbbaaaaabbbbbbaaabbbbbbabbbbaaaaaaaaaaaaaabbbaaaaaaaaaa",
"aabbbbbbbbbbbbbaaaaaabbbbbbaaabbbbbabbbbbbaaaaaaaaaaaabbbbbaaaaaaaaa",
"aabbbbbbbbbbbbbaaaaaabbbbbbaaaabbbbabbbbbbbaaaaaaaaaabbbbbbbaaaaaaaa",
"aaabbbbbbbbbbaaaaaaaaabbbbaaaaabbbbabbbbbbbbbaaaaaabbbbbbbbbbaaaaaaa",
"aaabbbbaaaaaaaaaaaaaaaaaaaaaaaaaaaabbbbbbbbbbbbbbbbbbbbbbbbbbbbbbbbb",
"aaabbbbaaaaabbaabbaaaaabaabababaaaabbbbbbbbbbbbbbbbbbbbbbbbbbbbbbbbb",
"aaaabbbaaaabaaabaabaaaabaabababaaabbbbbbbbbbbbbbbbbbbbbbbbbbbbbbbbbb",
"aaaabbbaaaabaaabaabaaaabaababbaaaabbbbbbbbbbbbbbbbbbbbbbbbbbbbbbbbbb",
"aaaaabbabbabaaabaababbabaabababaabbbbbabbbbbbbbbbbbbbbbbbbbbbbbbbbbb",
"aaaaaababbaabbaabbaabbaabbaabababbbbbbabbbbbbbbababababbbababbbbbbbb",
"bbbbbbaaaaaaaaaaaaaaaaaaaaaaaaabbbbbbbabababbbbabababaabaababbbbbbbb",
"bbbbbbbaaaaaaaaaaaaaaaaaaaaaaabbbbbbbbabaababbbabababababababbbbbbbb",
"bbbbbbbbaaaaaaaaaaaaaaaaaaaaabbbbbbbbbababbabbbababababbbababbbbbbbb",
"bbbbbbbbbbaaaaaaaaaaaaaaaaabbbbbbbbbbbababbabbbbababbabbbabaaabbbbbb",
"bbbbbbbbbbbbaaaaaaaaaaaaabbbbbbbbbbbbbbbbbbbbbbbbbbbbbbbbbbbbbbbbbbb",
"bbbbbbbbbbbbbbbbaaaaabbbbbbbbbbbbbbbbbbbbbbbbbbbbbbbbbbbbbbbbbbbbbbb"
};
